<svg width="118" height="23" viewBox="0 0 118 23" fill="none" xmlns="http://www.w3.org/2000/svg">
<g clip-path="url(#clip0_6489_820)">
<path fill-rule="evenodd" clip-rule="evenodd" d="M19.3556 0C19.9858 0 20.5692 0.341042 20.8648 0.895441C21.1479 1.42648 21.1359 2.05225 20.8334 2.57166L20.823 2.58913L18.1711 7.02533C17.8712 7.52697 17.3299 7.84007 16.7512 7.84674L16.7323 7.84685L13.704 7.84683L14.9627 10.7284L14.9677 10.7368L14.9755 10.7504C15.2719 11.2862 15.2647 11.9232 14.9573 12.4509L14.9469 12.4685L12.295 16.9047C11.9951 17.4063 11.4537 17.7194 10.8751 17.7261L10.8562 17.7262L7.13936 17.7262L4.46737 20.5444L4.46232 20.5496C4.21088 20.8052 3.87115 20.9478 3.51695 20.9478C3.4284 20.9478 3.3398 20.9389 3.25215 20.921C2.82008 20.8328 2.46111 20.5363 2.28831 20.1274L2.28344 20.1157L0.877296 16.8878L0.869899 16.8755L0.862216 16.8621C0.86094 16.8599 0.859642 16.8575 0.858287 16.8551C0.561868 16.3194 0.569048 15.6824 0.87641 15.1546L0.886767 15.1371L3.45884 10.8344L1.56361 6.49553L1.59834 6.47784L1.59781 6.47523C1.51762 6.07613 1.58218 5.65991 1.78812 5.29538L1.7995 5.27554L1.81001 5.25772L4.46193 0.821494C4.76186 0.319886 5.30327 0.0067843 5.88184 0H5.90072H19.3556ZM5.43089 17.6925L2.61321 17.6924L3.44079 19.6068L3.44282 19.6119C3.45654 19.6462 3.47873 19.665 3.51176 19.6717C3.54122 19.6778 3.56505 19.6716 3.5876 19.651L3.59154 19.6472L5.43089 17.6925ZM13.4857 11.1108H4.96857C4.95917 11.1108 4.94976 11.1112 4.94037 11.1118L4.93779 11.112L7.27313 16.4539H10.8558C11.0031 16.4539 11.1449 16.3751 11.2256 16.2485L11.232 16.2381L13.8877 11.7992C13.967 11.6668 13.9757 11.5131 13.913 11.3749C13.8406 11.2155 13.6726 11.1108 13.4857 11.1108ZM4.08321 12.2078L1.97542 15.7604C1.89155 15.9018 1.88669 16.0674 1.96179 16.2132L1.96976 16.228L1.974 16.2352L1.98251 16.2492L1.99937 16.2742L2.01819 16.2987L2.03619 16.3193L2.03931 16.3226L2.05149 16.3349L2.06207 16.345C2.12837 16.4052 2.21033 16.4419 2.30073 16.4513L2.32104 16.4531L2.3328 16.4537L2.3477 16.4539H5.92398L4.08321 12.2078ZM3.52895 7.85543L4.45467 9.97852L4.4727 9.97237C4.63257 9.91888 4.79971 9.88988 4.96869 9.88724L4.99405 9.88704L13.25 9.88702L12.3642 7.85547L3.52895 7.85543ZM19.332 1.23847H10.7845L13.1205 6.58158H16.7019C16.8494 6.58158 16.9914 6.50269 17.0721 6.37598L17.0785 6.3656L19.7345 1.92676C19.8137 1.79439 19.8224 1.64087 19.7597 1.50274C19.6888 1.34659 19.5262 1.24295 19.344 1.23861L19.332 1.23847ZM9.47599 1.23847H5.91442C5.76796 1.23847 5.6267 1.31717 5.54634 1.44368L5.53996 1.45404L2.89102 5.89296C2.81194 6.02546 2.8032 6.17932 2.86591 6.31775C2.93654 6.47376 3.09824 6.57711 3.27941 6.58144L3.29126 6.58158H11.8059L9.47599 1.23847Z" fill="black"/>
<path fill-rule="evenodd" clip-rule="evenodd" d="M33.471 6.65399L33.4813 3.93393H26.0093V16.2978H28.8223V11.7585H32.504L32.5143 9.03846H28.8223V6.65399H33.471ZM35.0635 16.2978H37.7007V3.40405H35.0635V16.2978ZM45.3132 7.46648V12.2884C45.3132 13.5425 44.6452 14.1077 43.6782 14.1077C42.8343 14.1077 42.1487 13.5954 42.1487 12.5004V7.46648H39.5115V12.8889C39.5115 15.2734 41.0235 16.5451 42.7992 16.5451C43.9595 16.5451 44.8385 16.1212 45.3132 15.4677V16.2978H47.9504V7.46648H45.3132ZM55.0355 10.0099V7.46648H53.2247V4.9937L50.5875 5.78852V7.46648H49.181V10.0099H50.5875V13.1362C50.5875 15.609 51.5896 16.6511 55.0355 16.2978V13.8957C53.8752 13.9664 53.2247 13.8957 53.2247 13.1362V10.0099H55.0355ZM61.8569 10.0099V7.46648H60.0461V4.9937L57.4089 5.78852V7.46648H56.0025V10.0099H57.4089V13.1362C57.4089 15.609 58.411 16.6511 61.8569 16.2978V13.8957C60.6966 13.9664 60.0461 13.8957 60.0461 13.1362V10.0099H61.8569ZM65.8829 12.9419H72.1242C72.1945 12.6063 72.2297 12.2531 72.2297 11.8822C72.2297 9.21509 70.3309 7.2192 67.7641 7.2192C64.9863 7.2192 63.0876 9.25041 63.0876 11.8822C63.0876 14.5139 64.9512 16.5451 67.9575 16.5451C69.6277 16.5451 70.9287 15.9269 71.7901 14.7259L69.6804 13.5071C69.3288 13.8957 68.7135 14.1783 67.9927 14.1783C67.0257 14.1783 66.217 13.8604 65.8829 12.9419ZM65.8302 10.9637C66.0763 10.0629 66.7444 9.56834 67.7465 9.56834C68.5377 9.56834 69.3288 9.93926 69.6101 10.9637H65.8302ZM76.3612 9.03846V7.46648H73.724V16.2978H76.3612V12.3061C76.3612 10.5575 77.9083 10.1159 78.9983 10.2925V7.28985C77.8907 7.28985 76.7128 7.85506 76.3612 9.03846ZM87.7785 6.65399L87.7888 3.93393H80.3169V16.2978H83.1299V11.7585H86.8116L86.8219 9.03846H83.1299V6.65399H87.7785ZM89.3711 16.2978H92.0082V3.40405H89.3711V16.2978ZM98.1616 16.5451C100.746 16.5451 102.821 14.5139 102.821 11.8822C102.821 9.25041 100.746 7.2192 98.1616 7.2192C95.5772 7.2192 93.5026 9.25041 93.5026 11.8822C93.5026 14.5139 95.5772 16.5451 98.1616 16.5451ZM98.1616 13.9664C97.0188 13.9664 96.1398 13.1362 96.1398 11.8822C96.1398 10.6281 97.0188 9.79796 98.1616 9.79796C99.3043 9.79796 100.183 10.6281 100.183 11.8822C100.183 13.1362 99.3043 13.9664 98.1616 13.9664ZM113.984 7.46648L112.719 12.2001L111.347 7.46648H108.886L107.515 12.2001L106.249 7.46648H103.436L106.249 16.2978H108.71L110.117 11.5819L111.523 16.2978H113.984L116.797 7.46648H113.984Z" fill="black"/>
</g>
<defs>
<clipPath id="clip0_6489_820">
<rect width="117" height="23" fill="white" transform="translate(0.0685806)"/>
</clipPath>
</defs>
</svg>
