<svg width="75" height="21" viewBox="0 0 75 21" fill="none" xmlns="http://www.w3.org/2000/svg">
<g clip-path="url(#clip0_6490_834)">
<mask id="mask0_6490_834" style="mask-type:luminance" maskUnits="userSpaceOnUse" x="0" y="0" width="75" height="21">
<path d="M74.7532 0.5H0.943573V20.5H74.7532V0.5Z" fill="white"/>
</mask>
<g mask="url(#mask0_6490_834)">
<path fill-rule="evenodd" clip-rule="evenodd" d="M10.4714 5.86372C10.0733 5.21029 9.52824 4.69801 8.83386 4.32715C8.14053 3.95619 7.34453 3.76962 6.451 3.76962H0.943573V16.9748H4.02719V12.4469H6.45004C7.34557 12.4469 8.13947 12.2582 8.83282 11.8808C9.52614 11.5044 10.0722 10.9857 10.4703 10.3248C10.8673 9.66381 11.0652 8.91866 11.0652 8.08944C11.0652 7.26019 10.8661 6.51724 10.4703 5.86372H10.4714ZM7.79329 8.82476C7.66681 9.03944 7.48729 9.20544 7.25471 9.32515C7.02214 9.44372 6.75282 9.50419 6.4511 9.50419H4.02929V6.69287H6.451C6.75386 6.69287 7.02204 6.75324 7.25461 6.87191C7.48824 6.99162 7.66776 7.15866 7.79329 7.37219C7.91976 7.58676 7.98253 7.82515 7.98253 8.08934C7.98253 8.35352 7.91871 8.61134 7.79329 8.82476ZM19.4671 7.54266C19.838 7.99772 20.0965 8.61238 20.2426 9.38334L17.3828 10.3959C17.3277 10.1263 17.2281 9.91287 17.0832 9.75972C16.8625 9.52676 16.6073 9.41029 16.2796 9.41029C15.9519 9.41029 15.6587 9.52144 15.4002 9.74029C15.1406 9.96029 14.9427 10.2719 14.8042 10.6741C14.6659 11.0763 14.5966 11.5357 14.5966 12.0512V16.9748H11.6633V6.78791H14.2742V8.54229C14.4884 8.12705 14.7448 7.77562 15.0411 7.48552C15.3375 7.19658 15.6803 6.97334 16.0719 6.81591C16.4623 6.65848 16.8788 6.57972 17.3212 6.57972C18.2296 6.57972 18.9458 6.90001 19.4691 7.54162L19.4671 7.54266ZM41.2765 9.20324C40.8417 8.39887 40.2478 7.76048 39.4973 7.28819C38.7466 6.81695 37.917 6.58087 37.0096 6.58087C36.1021 6.58087 35.3125 6.77924 34.6441 7.17495C34.2627 7.40134 33.9236 7.69213 33.6415 8.03438V6.78791H31.0305V20.5311H33.9637V16.0819C33.9866 16.1034 34.0081 16.1261 34.0298 16.1466C34.4019 16.4863 34.8399 16.744 35.3449 16.9208C35.8489 17.0955 36.4039 17.1849 37.0106 17.1849C37.9311 17.1849 38.7661 16.9489 39.5177 16.4776C40.2684 16.0064 40.858 15.3648 41.2873 14.5529C41.7157 13.7419 41.9298 12.8512 41.9298 11.8829C41.9298 10.9146 41.7123 10.0099 41.2775 9.20438L41.2765 9.20324ZM38.6276 13.1553C38.4069 13.5381 38.1074 13.8433 37.7288 14.0697C37.3513 14.2952 36.9348 14.4094 36.4795 14.4094C36.0004 14.4094 35.5721 14.2994 35.1935 14.0794C34.815 13.8594 34.5153 13.5586 34.2947 13.1748C34.0742 12.7909 33.9637 12.3541 33.9637 11.8635C33.9637 11.3988 34.071 10.9749 34.2849 10.59C34.5002 10.2061 34.7967 9.90419 35.1742 9.68524C35.5526 9.46524 35.9821 9.35534 36.4602 9.35534C36.9382 9.35534 37.3491 9.46638 37.7288 9.68534C38.1063 9.90534 38.4069 10.2105 38.6266 10.5997C38.8473 10.9901 38.9575 11.417 38.9575 11.8818C38.9575 12.3466 38.8461 12.7725 38.6266 13.1553H38.6276ZM45.6115 15.7864C45.6558 16.277 45.7338 16.6739 45.8484 16.9748H42.6123V2.97705H45.5456V14.031C45.5456 14.7103 45.5673 15.2947 45.6115 15.7853V15.7864ZM53.8348 6.78687H56.9758L52.4721 17.559C52.0817 18.5015 51.5668 19.2348 50.9298 19.7567C50.2926 20.2785 49.4447 20.5395 48.3847 20.5395C47.9563 20.5395 47.54 20.4931 47.1355 20.3983C46.732 20.3034 46.3847 20.1879 46.095 20.0489L46.9841 17.2572C47.2491 17.3952 47.5044 17.5019 47.751 17.5775C47.9963 17.6528 48.2387 17.6906 48.4789 17.6906C48.8195 17.6906 49.0941 17.5957 49.3019 17.4071C49.5096 17.2183 49.6967 16.9476 49.86 16.5961L50.0547 16.1648L46.1328 6.78772H49.2738L51.5452 12.7821L53.8348 6.78781V6.78666V6.78687ZM30.2409 11.43C30.2409 10.5242 30.0202 9.70048 29.5779 8.95858C29.1355 8.21552 28.531 7.63438 27.7619 7.21381C26.9928 6.79115 26.1352 6.58087 25.1888 6.58087C24.2424 6.58087 23.3338 6.81162 22.5399 7.26991C21.7449 7.72819 21.1197 8.36438 20.6666 9.17524C20.2123 9.98619 19.9852 10.8952 19.9852 11.9012C19.9852 12.9073 20.2111 13.8465 20.6666 14.6455C21.1209 15.4446 21.761 16.0678 22.5864 16.5132C23.4126 16.9596 24.3612 17.1839 25.4342 17.1839C26.7592 17.1839 27.8375 16.8701 28.6693 16.2393C29.2955 15.7671 29.7585 15.1589 30.0548 14.417L27.2189 13.4313C27.1454 13.7926 26.9484 14.0816 26.6251 14.2972C26.2844 14.5227 25.8484 14.6369 25.3195 14.6369C24.7906 14.6369 24.3505 14.5237 23.9666 14.2972C23.5816 14.0719 23.2883 13.7409 23.0861 13.3063C22.9866 13.0917 22.912 12.8555 22.86 12.5989H30.1241C30.1997 12.1967 30.2387 11.8074 30.2387 11.43H30.2409ZM22.9812 10.4854C23.0083 10.4099 23.0363 10.3377 23.0688 10.2687C23.258 9.86001 23.5284 9.54619 23.8821 9.32515C24.2347 9.10515 24.6641 8.99515 25.1681 8.99515C25.5219 8.99515 25.8463 9.06095 26.1427 9.19362C26.4402 9.32619 26.676 9.50201 26.8523 9.72201C27.0284 9.94201 27.1303 10.1975 27.1552 10.4865H22.9802L22.9812 10.4854Z" fill="black"/>
<path fill-rule="evenodd" clip-rule="evenodd" d="M72.7295 5.5303L65.3411 1.02725C62.9616 -0.422087 59.9071 1.28496 59.9071 4.06487V16.7296C59.9071 19.2572 61.3965 20.5619 63.3098 20.5619C65.1041 20.5619 66.574 19.1764 66.7027 17.4209C68.4572 17.2375 69.9044 15.7603 69.8242 13.7589L73.0441 11.7964C74.1831 11.1019 74.7532 9.93087 74.7532 8.75877C74.7532 7.58659 74.353 6.42734 72.7295 5.5281V5.5303ZM63.3098 18.5455C62.5483 18.5455 61.9318 17.9298 61.9318 17.1718C61.9318 16.4137 62.5483 15.797 63.3098 15.797C64.0711 15.797 64.6888 16.4127 64.6888 17.1718C64.6888 17.9308 64.0711 18.5455 63.3098 18.5455ZM67.8005 13.9627C67.8005 14.4813 67.4653 15.4228 66.2248 15.4228C66.0846 15.1912 65.9175 14.9769 65.7273 14.7844C65.5352 14.5928 65.3217 14.4238 65.0911 14.2808C64.5553 13.9518 63.9385 13.7782 63.3098 13.7793C62.8348 13.779 62.3653 13.8778 61.9308 14.0694V11.0318C61.9308 10.2252 62.5863 9.57181 63.3952 9.57181H66.335C67.1441 9.57181 67.7995 10.2252 67.7995 11.0318V13.9627H67.8005ZM71.9884 10.0775L69.8242 11.3963V11.0308C69.8242 9.1103 68.2624 7.55316 66.3362 7.55316H63.3963C62.8738 7.55316 62.3775 7.66744 61.9318 7.87448V4.06591C61.9318 2.86144 63.2547 2.12067 64.2864 2.74924L71.9896 7.4443C72.9772 8.04601 72.9772 9.47581 71.9896 10.0775H71.9884Z" fill="black"/>
</g>
</g>
<defs>
<clipPath id="clip0_6490_834">
<rect width="73.9496" height="20" fill="white" transform="translate(0.943573 0.5)"/>
</clipPath>
</defs>
</svg>
