<svg width="92" height="15" viewBox="0 0 92 15" fill="none" xmlns="http://www.w3.org/2000/svg">
<g clip-path="url(#clip0_6489_826)">
<path d="M6.13845 10.286C6.27407 10.6036 6.22945 11.0114 6.1612 11.2608C6.04745 11.6913 5.75345 12.1445 4.89245 12.1445C4.07782 12.1445 3.57995 11.6685 3.57995 10.9659V9.69712H0.068573V10.6946C0.068573 13.6162 2.35582 14.5 4.82507 14.5C7.18057 14.5 9.12832 13.6845 9.44507 11.5101C9.60345 10.377 9.49058 9.6525 9.42233 9.35762C8.87983 6.61625 3.91857 5.80075 3.53357 4.28262C3.4662 4.01137 3.48895 3.74012 3.51082 3.60362C3.60182 3.19587 3.89582 2.71987 4.71132 2.71987C5.48132 2.71987 5.93457 3.19588 5.93457 3.89763V4.714H9.19657V3.78475C9.19657 0.9305 6.6372 0.5 4.77957 0.5C2.44682 0.5 0.566448 1.27 0.204198 3.39975C0.114073 3.98863 0.0904478 4.51012 0.226948 5.16725C0.815823 7.81675 5.45945 8.58763 6.13845 10.286ZM48.6057 10.2641C48.7413 10.5809 48.6958 10.9886 48.6285 11.2153C48.5147 11.6458 48.2207 12.0762 47.3597 12.0762C46.5442 12.0762 46.0691 11.6002 46.0691 10.8976V9.6525H42.6041V10.6491C42.6041 13.5261 44.8686 14.409 47.3142 14.409C49.6478 14.409 51.5728 13.6162 51.8905 11.4419C52.048 10.3315 51.9342 9.58425 51.8668 9.31212C51.3235 6.5935 46.4086 5.80075 46.0463 4.2835C45.9781 4.01138 46.0008 3.73925 46.0236 3.60362C46.1146 3.19587 46.3858 2.74262 47.2013 2.74262C47.9486 2.74262 48.4018 3.21863 48.4018 3.92038V4.714H51.6402V3.8075C51.6402 0.99875 49.1036 0.5455 47.2696 0.5455C44.9815 0.5455 43.102 1.3155 42.7397 3.4225C42.6487 3.98863 42.626 4.51013 42.7625 5.16638C43.3513 7.81763 47.9486 8.58763 48.6057 10.2641ZM75.7167 11.4191L75.5356 0.90775H78.774V13.8201H74.1085L70.8246 2.96925L71.0057 13.8201H67.7892V0.90775H72.6367L75.7167 11.4191ZM16.9867 1.85888L15.1755 13.9566H11.6422L14.0432 0.90775H19.8637L22.2647 13.9566H18.7542L16.9867 1.85888ZM36.0582 1.85888L33.7928 13.9575H30.4862L28.2445 1.85888L28.1535 13.9566H24.8923L25.1636 0.90775H30.4862L32.14 11.1015L33.7937 0.90775H39.1155L39.4103 13.9566H36.1483L36.0582 1.85888ZM59.5677 12.0089C60.4733 12.0089 60.7682 11.3736 60.8137 11.0569C60.8365 10.9204 60.8365 10.7165 60.8365 10.5581V0.885H64.1431V10.265C64.1431 10.5135 64.1203 10.9895 64.1203 11.1251C63.8937 13.5725 61.9678 14.3653 59.5677 14.3653C57.1667 14.3653 55.2417 13.5725 55.0151 11.1251C54.9923 10.9895 54.9696 10.5135 54.9923 10.265V0.885H58.2998V10.5581C58.2998 10.7165 58.2998 10.9204 58.3217 11.0569C58.39 11.3964 58.6621 12.0089 59.5677 12.0089ZM86.8371 11.8724C87.7882 11.8724 88.1058 11.2599 88.1732 10.9204C88.196 10.7629 88.2187 10.5809 88.196 10.4216V8.51938H86.8598V6.61625H91.4798V10.1276C91.4798 10.377 91.4798 10.5581 91.4352 10.9886C91.2086 13.3677 89.1471 14.2051 86.8371 14.2051C84.5271 14.2051 82.4656 13.3677 82.2398 10.9886C82.1943 10.5581 82.1943 10.377 82.1943 10.1276V4.623C82.1943 4.39637 82.2171 3.98862 82.2398 3.762C82.5338 1.3155 84.5043 0.5455 86.8371 0.5455C89.1471 0.5455 91.1858 1.3155 91.4125 3.762C91.458 4.16975 91.4352 4.623 91.4352 4.623V5.0535H88.1277V4.32812C88.1277 4.32812 88.1277 4.01138 88.0831 3.82938C88.0148 3.53538 87.7663 2.87825 86.7697 2.87825C85.8177 2.87825 85.5465 3.51262 85.4782 3.83025C85.4327 4.01137 85.4327 4.238 85.4327 4.44188V10.4225C85.4327 10.5809 85.4327 10.762 85.4555 10.9212C85.5465 11.2835 85.8851 11.8724 86.8371 11.8724Z" fill="black"/>
</g>
<defs>
<clipPath id="clip0_6489_826">
<rect width="91.875" height="14" fill="white" transform="translate(0.068573 0.5)"/>
</clipPath>
</defs>
</svg>
