<svg width="78" height="23" viewBox="0 0 78 23" fill="none" xmlns="http://www.w3.org/2000/svg">
<g clip-path="url(#clip0_6489_830)">
<path d="M8.34655 12.9409H2.68736V18.9025H0V4.19287H2.68736V10.3554H8.34655V4.19287H11.0335V18.9025H8.34655V12.9409ZM19.6324 14.1479C19.6324 15.3731 18.6343 16.3699 17.4095 16.3699C16.1843 16.3699 15.1871 15.3731 15.1871 14.1479V7.84763H12.6422V14.1479C12.6422 16.7763 14.7808 18.9145 17.4095 18.9145C20.0375 18.9145 22.1762 16.7765 22.1762 14.1479V7.84763H19.6322L19.6324 14.1479ZM38.5152 8.49643C38.5152 7.20475 39.3701 6.79512 40.3061 6.79512C41.0599 6.79512 42.0573 7.3686 42.7079 8.06564L44.3767 6.09854C43.5429 4.97184 41.8534 4.19287 40.4693 4.19287C37.7002 4.19287 35.7054 5.8118 35.7054 8.4962C35.7054 13.4756 41.7924 11.8975 41.7924 14.6849C41.7924 15.5445 40.9581 16.3034 40.0014 16.3034C38.4947 16.3034 38.0059 15.5659 37.3138 14.7869L35.4612 16.7128C36.6425 18.1679 38.1078 18.9059 39.8587 18.9059C42.4847 18.9059 44.602 17.2665 44.602 14.7047C44.602 9.17208 38.5152 10.8936 38.5152 8.49643ZM76.172 16.5526C74.6664 16.5526 74.2388 15.9015 74.2388 14.9036V10.4865H76.5793V8.24724H74.2388V5.29544L71.6543 6.45559V15.4537C71.6543 17.7542 73.2413 18.9148 75.4187 18.9148C75.7446 18.9148 76.1929 18.8936 76.4373 18.8333L77.0686 16.5128C76.7837 16.5326 76.458 16.5526 76.172 16.5526ZM29.3321 7.92137C28.0697 7.92137 27.1888 8.28775 26.3379 9.12293V4.28071H23.7851V13.2549C23.7851 16.6138 26.2135 18.9145 28.9422 18.9145C31.9757 18.9145 34.6333 16.5731 34.6333 13.4183C34.6333 10.3033 32.1824 7.92137 29.3321 7.92137ZM29.3161 16.3453C27.717 16.3453 26.4208 15.0488 26.4208 13.4497C26.4208 11.8506 27.717 10.5543 29.3164 10.5543C30.9153 10.5543 32.2117 11.8506 32.2117 13.4497C32.2117 15.0488 30.9153 16.3453 29.3161 16.3453ZM57.0477 13.2856C57.0477 10.1308 54.3902 7.78937 51.3569 7.78937C48.6281 7.78937 46.1995 10.0901 46.1995 13.449V22.4232H48.7524V17.5808C49.6035 18.4159 50.4844 18.7823 51.7467 18.7823C54.597 18.7823 57.0477 16.4006 57.0477 13.2856ZM54.6264 13.2542C54.6264 14.8533 53.3299 16.1496 51.7308 16.1496C50.1314 16.1496 48.8352 14.8533 48.8352 13.2542C48.8352 11.6551 50.1314 10.3586 51.7308 10.3586C53.3299 10.3586 54.6264 11.6551 54.6264 13.2542Z" fill="black"/>
<path d="M65.2969 7.6659V5.10142C65.9664 4.7851 66.4352 4.10808 66.4352 3.32228V3.26312C66.4352 2.17852 65.5479 1.291 64.4635 1.291H64.4044C63.3198 1.291 62.4322 2.17852 62.4322 3.26289V3.32206C62.4322 4.10808 62.9015 4.78533 63.5708 5.10165V7.6659C62.597 7.81484 61.6798 8.21835 60.9121 8.8356L53.8715 3.3587C53.9177 3.18028 53.9503 2.99663 53.9505 2.80365C53.9521 1.57524 52.9576 0.578255 51.7292 0.576662C50.5008 0.575069 49.5036 1.56977 49.502 2.79796C49.5006 4.02638 50.4951 5.02359 51.7235 5.02518C52.124 5.02564 52.4943 4.91185 52.819 4.72707L59.7451 10.115C59.1349 11.0339 58.81 12.1126 58.8112 13.2156C58.8103 14.3697 59.1666 15.4958 59.8311 16.4394L57.7247 18.5455C57.5584 18.4955 57.3854 18.4606 57.2025 18.4606C56.841 18.4606 56.4876 18.5678 56.187 18.7687C55.8864 18.9695 55.6521 19.255 55.5138 19.589C55.3754 19.923 55.3392 20.2905 55.4098 20.6451C55.4803 20.9996 55.6544 21.3253 55.91 21.581C56.1656 21.8366 56.4913 22.0107 56.8459 22.0812C57.2004 22.1517 57.568 22.1155 57.9019 21.9772C58.2359 21.8388 58.5214 21.6046 58.7223 21.304C58.9231 21.0034 59.0303 20.65 59.0303 20.2885C59.0303 20.1057 58.9955 19.9328 58.9454 19.7662L61.0288 17.6828C61.9746 18.4047 63.1523 18.8384 64.4339 18.8384C67.5393 18.8384 70.0567 16.321 70.0567 13.2156C70.0567 10.4045 67.9915 8.08189 65.2969 7.6659ZM64.4339 16.0982C62.8419 16.0982 61.5511 14.8077 61.5511 13.2156C61.5511 11.6236 62.8419 10.3328 64.4339 10.3328C66.026 10.3328 67.3168 11.6236 67.3168 13.2156C67.3168 14.8077 66.026 16.0982 64.4339 16.0982Z" fill="black"/>
</g>
<defs>
<clipPath id="clip0_6489_830">
<rect width="77.0686" height="21.8466" fill="white" transform="translate(0 0.57666)"/>
</clipPath>
</defs>
</svg>
